<?xml version="1.0" encoding="UTF-8"?>
<svg id="Layer_1" data-name="Layer 1" xmlns="http://www.w3.org/2000/svg" version="1.1" viewBox="0 0 128 128">
  <defs>
    <style>
      .cls-1 {
        fill: #222046;
      }

      .cls-1, .cls-2, .cls-3, .cls-4, .cls-5 {
        stroke-width: 0px;
      }

      .cls-2 {
        fill: #414368;
      }

      .cls-3 {
        fill: #ee7c7c;
      }

      .cls-4 {
        fill: #fefefe;
      }

      .cls-5 {
        fill: #fff;
      }
    </style>
  </defs>
  <rect class="cls-5" width="128" height="128" rx="20" ry="20"/>
  <g>
    <ellipse class="cls-5" cx="63.1" cy="79.7" rx="32.1" ry="32.2"/>
    <g>
      <path class="cls-4" d="M81.5,59.2c.8,1.1,1.7,2.2,2.4,3.5,3,5.3,3.7,11,2.8,16.9-2.6,17.1-16.7,29.7-33.8,30.3-.2,0-.5,0-.7.2.3.1.6.2.9.3,4.3,1.2,8.6,1.6,13,1.2,9.7-.9,17.8-4.9,24.3-11.9,4-4.4,6.8-9.7,8.3-15.5.6-2.3,1.1-4.5,1.1-6.9,0-1.3.2-2.5.2-3.7,0-17.8,0-35.6,0-53.4v-.8c-.2-5-5.6-7.9-9.8-5.3-2.2,1.4-3.2,3.5-3.2,6.1v26.5c-.3-.2-.5-.4-.7-.5-9.8-7.7-20.7-10.1-32.7-7.1-14.9,3.7-26.3,17.2-27.5,32.6-.7,9.1,1.5,17.3,6.9,24.7,4.6,6.4,10.6,10.8,18,13.4.3,0,.6.3.9,0,2.6-1.5,5.1-2.9,7.4-4.8,1.8-1.5,3.4-3.3,4.5-5.5.2-.5.2-.6-.4-.6-9.3,0-16.5-4.1-21.2-12-6.1-10.2-3.6-23.2,5.5-30.8,7.7-6.3,18.5-7.2,27.2-2.3,2.5,1.4,4.6,3.4,6.6,5.5h0ZM78,72.8c-.1-3.2-1.6-5.8-4.7-7.2-3.2-1.5-6.2-.9-8.8,1.4-.4.4-.6.3-1,0-2-1.8-4.4-2.5-7-1.9-2.9.6-5,2.4-6,5.2-1,2.9-.6,5.6,1.4,7.9,3.5,3.7,7.2,7.2,10.8,10.8.7.7,1.9.7,2.6,0,.6-.6,1.3-1.2,1.9-1.8,2.8-2.8,5.6-5.5,8.4-8.3,1.6-1.6,2.4-3.5,2.4-5.9h0Z"/>
      <path class="cls-2" d="M81.5,59c-2-2.1-4.1-4.1-6.7-5.6-8.7-5-19.8-4-27.5,2.3-9.3,7.6-11.8,20.8-5.6,31.2,4.8,8.1,12.1,12.1,21.5,12.2.6,0,.7.1.4.7-1.1,2.2-2.7,4-4.5,5.5-2.3,1.9-4.9,3.4-7.5,4.9-.4.2-.7,0-1,0-7.5-2.6-13.6-7.1-18.2-13.6-5.4-7.5-7.6-15.9-6.9-25.1,1.2-15.5,12.7-29.2,27.8-33,12.2-3,23.3-.5,33.2,7.2.2.1.3.3.7.5v-26.9c0-2.6.9-4.8,3.2-6.2,4.3-2.6,9.7.3,9.9,5.4,0,.3,0,.5,0,.8,0,18.1,0,36.1,0,54.2,0,1.3-.2,2.5-.3,3.8-.3,0-.5-.2-.6-.4-.7-.7-1.3-1.3-2-2-3.1-3.2-6.2-6.4-9.3-9.7-2-2-3.9-4.1-5.8-6.1-.2-.2-.4-.5-.7-.2h0Z"/>
      <path class="cls-1" d="M81.5,59c.3-.3.5,0,.7.2,1.9,2,3.9,4.1,5.8,6.1,3.1,3.2,6.2,6.5,9.3,9.7.6.7,1.3,1.3,2,2,.2.2.4.4.6.4,0,2.5-.5,4.8-1.1,7.2-1.4,5.6-3.9,10.5-7.7,14.8-6.7,7.6-15.2,11.8-25.3,12.8-4.5.4-8.9,0-13.2-1.3-.3,0-.5-.2-.9-.3.3-.2.5-.2.7-.2,17.4-.6,31.6-13.4,34.3-30.7.9-6.1.2-11.8-2.8-17.2-.7-1.3-1.6-2.4-2.4-3.5h0Z"/>
      <path class="cls-3" d="M78,72.8c0,2.4-.9,4.3-2.4,5.9-2.8,2.8-5.6,5.5-8.4,8.3-.6.6-1.2,1.3-1.9,1.8-.8.7-1.9.7-2.6,0-3.6-3.6-7.3-7.1-10.8-10.8-2.1-2.2-2.5-5-1.4-7.9,1-2.8,3.1-4.6,6-5.2,2.6-.5,5,.2,7,1.9.3.3.6.4,1,0,2.6-2.3,5.7-2.8,8.8-1.4,3.1,1.4,4.6,4,4.7,7.2h0Z"/>
    </g>
  </g>
</svg>