<svg id="Layer_1" height="100%" version="1.1" viewBox="0 0 971.74 173.21" width="100%" xmlns="http://www.w3.org/2000/svg" xmlns:xlink="http://www.w3.org/1999/xlink"><style type="text/css">
    .st0 {
      fill: currentColor;
    }

    .st2 {
      fill: none;
      stroke: #e5184c;
      stroke-miterlimit: 10;
    }
  </style><g><path class="st0" d="M242.44-355.7"></path></g><g><path class="st0" d="M257.51,78.83"></path></g><g><path class="st0" d="M165.25,129.17c-16.5,16.5-43.35,16.5-59.85,0s-16.5-43.35,0-59.85s43.35-16.5,59.85,0
		c2.91,2.91,2.91,7.62,0,10.53L118,127.1c-2.91,2.91-7.62,2.91-10.53,0c-2.91-2.91-2.91-7.62,0-10.53l41.26-41.26
		c-10.44-5.84-23.92-4.33-32.79,4.54c-10.69,10.69-10.69,28.09,0,38.79s28.09,10.69,38.79,0c5.79-5.79,8.68-13.8,7.91-21.96
		c-0.38-4.1,2.63-7.73,6.72-8.11c4.1-0.38,7.73,2.63,8.11,6.72C178.64,107.88,174.19,120.23,165.25,129.17z"></path></g><g><path class="st0" d="M317.99,140.07c-23.34,0-42.32-18.98-42.32-42.32s18.98-42.32,42.32-42.32c12.64,0,24.52,5.59,32.6,15.32
		c2.62,3.17,2.18,7.86-0.98,10.49c-3.17,2.62-7.86,2.19-10.49-0.98c-5.23-6.31-12.93-9.94-21.13-9.94
		c-15.12,0-27.42,12.3-27.42,27.43s12.3,27.42,27.42,27.42c8.19,0,15.89-3.62,21.12-9.93c2.62-3.17,7.32-3.6,10.49-0.98
		c3.17,2.63,3.6,7.32,0.98,10.49C342.51,134.49,330.63,140.07,317.99,140.07z"></path></g><g><path class="st0" d="M647.9,71.55h-69.64c-4.11,0-7.45-3.33-7.45-7.45s3.33-7.45,7.45-7.45h69.64c4.11,0,7.45,3.33,7.45,7.45
		S652.02,71.55,647.9,71.55z"></path></g><g><path class="st0" d="M694.63,140.07c-23.34,0-42.32-18.98-42.32-42.32s18.99-42.32,42.32-42.32c23.34,0,42.32,18.99,42.32,42.32
		S717.96,140.07,694.63,140.07z M667.2,97.75c0,15.12,12.3,27.42,27.43,27.42c15.12,0,27.43-12.3,27.43-27.42
		s-12.3-27.43-27.43-27.43C679.5,70.33,667.2,82.63,667.2,97.75z"></path></g><g><path class="st0" d="M613.09,140.07c-4.11,0-7.45-3.33-7.45-7.45V65.86c0-4.11,3.33-7.45,7.45-7.45c4.11,0,7.45,3.33,7.45,7.45
		v66.77C620.53,136.74,617.2,140.07,613.09,140.07z"></path></g><g><path class="st0" d="M467.31,140.07c-4.11,0-7.45-3.33-7.45-7.45V62.88c0-4.11,3.33-7.45,7.45-7.45s7.45,3.33,7.45,7.45v69.75
		C474.76,136.74,471.43,140.07,467.31,140.07z"></path></g><g><path class="st0" d="M530.77,140.07c-23.34,0-42.32-18.98-42.32-42.32s18.99-42.32,42.32-42.32c23.34,0,42.32,18.99,42.32,42.32
		S554.11,140.07,530.77,140.07z M503.35,97.75c0,15.12,12.3,27.42,27.43,27.42c15.12,0,27.43-12.3,27.43-27.42
		s-12.3-27.43-27.43-27.43C515.65,70.33,503.35,82.63,503.35,97.75z"></path></g><g><path class="st0" d="M496.07,173.21c-4.11,0-7.45-3.33-7.45-7.45V95.88c0-4.11,3.33-7.45,7.45-7.45c4.11,0,7.45,3.33,7.45,7.45
		v69.88C503.51,169.88,500.18,173.21,496.07,173.21z"></path></g><g><path class="st0" d="M42.32,140.07C18.99,140.07,0,121.09,0,97.75s18.99-42.32,42.32-42.32s42.32,18.99,42.32,42.32
		S65.66,140.07,42.32,140.07z M14.9,97.75c0,15.12,12.3,27.42,27.43,27.42s27.43-12.3,27.43-27.42s-12.3-27.43-27.43-27.43
		S14.9,82.63,14.9,97.75z"></path></g><g><path class="st0" d="M77.03,105.13c-4.11,0-7.45-3.33-7.45-7.45V30.11c0-4.11,3.33-7.45,7.45-7.45s7.45,3.33,7.45,7.45v67.57
		C84.48,101.8,81.14,105.13,77.03,105.13z"></path></g><circle class="fill-primary-500" cx="77.03" cy="7.45" r="7.45"></circle><circle class="st0" cx="846.64" cy="132.37" r="7.45"></circle><g><path class="fill-primary-500" d="M59.01,95.18c0-4.82-3.92-8.73-8.73-8.73c-3.53,0-6.58,2.11-7.96,5.13c-1.37-3.02-4.42-5.13-7.95-5.13
		c-4.82,0-8.73,3.92-8.73,8.73c0,1.02,0.17,1.99,0.5,2.9c0.37,1.03,0.92,1.98,1.62,2.79c0.3,0.35,0.62,0.67,0.98,0.97l13.32,13.23
		c0.08,0.08,0.19,0.12,0.3,0.12c0.11,0,0.22-0.04,0.3-0.12l13.82-13.73l0,0c0.9-0.9,1.6-1.99,2.04-3.2
		C58.83,97.21,59.01,96.22,59.01,95.18z"></path></g><circle class="st0" cx="467.31" cy="38.87" r="7.45"></circle><g><path class="st0" d="M77.03,140.07c-4.11,0-7.45-3.33-7.45-7.45V65.05c0-4.11,3.33-7.45,7.45-7.45s7.45,3.33,7.45,7.45v67.57
		C84.48,136.74,81.14,140.07,77.03,140.07z"></path></g><g><path class="st0" d="M496.07,140.21c-4.11,0-7.45-3.33-7.45-7.45V62.88c0-4.11,3.33-7.45,7.45-7.45c4.11,0,7.45,3.33,7.45,7.45
		v69.88C503.51,136.87,500.18,140.21,496.07,140.21z"></path></g><path class="st2" d="M421.34,90.05"></path><path class="st2" d="M396.98,104.95"></path><g><path class="st0" d="M247.41,90.05h-3.48H210.8c-5.5,0-9.98-4.48-9.98-9.98c0-5.5,4.48-9.98,9.98-9.98h35.13h3.48
		c4.11,0,7.45-3.33,7.45-7.45s-3.33-7.45-7.45-7.45h-3.48H210.8c-0.86,0-1.7,0.04-2.54,0.13c-12.53,1.28-22.33,11.89-22.33,24.74
		c0,0,0,0,0,0s0,0,0,0c0,12.86,9.81,23.47,22.33,24.74c0.84,0.09,1.68,0.13,2.54,0.13h33.13h3.48c4.11,0,7.45-3.33,7.45-7.45
		S251.53,90.05,247.41,90.05z"></path><path class="st0" d="M227.89,104.96h3.48h13.72c5.5,0,9.98,4.48,9.98,9.98c0,5.5-4.48,9.98-9.98,9.98h-35.07h-17.07
		c-4.11,0-7.45,3.33-7.45,7.45c0,4.11,3.33,7.45,7.45,7.45h17.07h35.07c0.86,0,1.7-0.04,2.54-0.13
		c12.53-1.28,22.33-11.89,22.33-24.74c0,0,0,0,0,0c0,0,0,0,0,0c0-12.86-9.81-23.47-22.33-24.74c-0.84-0.09-1.68-0.13-2.54-0.13
		h-13.72h-3.48c-4.11,0-7.45,3.33-7.45,7.45C220.44,101.62,223.78,104.96,227.89,104.96z"></path></g><g><g><path class="st0" d="M421.34,104.95h-33.13c-13.71,0-24.87-11.16-24.87-24.87s11.16-24.87,24.87-24.87h33.13
			c13.71,0,24.87,11.16,24.87,24.87S435.05,104.95,421.34,104.95z M388.21,70.1c-5.5,0-9.98,4.48-9.98,9.98s4.47,9.98,9.98,9.98
			h33.13c5.5,0,9.98-4.48,9.98-9.98s-4.47-9.98-9.98-9.98H388.21z"></path></g><g><path class="st0" d="M370.78,140.07c-4.11,0-7.45-3.33-7.45-7.45V80.08c0-4.11,3.33-7.45,7.45-7.45c4.11,0,7.45,3.33,7.45,7.45
			v52.55C378.23,136.74,374.9,140.07,370.78,140.07z"></path></g><g><path class="st0" d="M444.63,138.2c-2.91,2.91-7.62,2.91-10.53,0l-35.16-35.16c-2.91-2.91-2.91-7.62,0-10.53s7.62-2.91,10.53,0
			l35.16,35.16C447.54,130.57,447.54,135.29,444.63,138.2z"></path></g></g><g><g><path class="st0" d="M801.34,104.95h-33.13c-13.71,0-24.87-11.16-24.87-24.87s11.16-24.87,24.87-24.87h33.13
			c13.71,0,24.87,11.16,24.87,24.87S815.05,104.95,801.34,104.95z M768.21,70.1c-5.5,0-9.98,4.48-9.98,9.98s4.47,9.98,9.98,9.98
			h33.13c5.5,0,9.98-4.48,9.98-9.98s-4.47-9.98-9.98-9.98H768.21z"></path></g><g><path class="st0" d="M750.78,140.07c-4.11,0-7.45-3.33-7.45-7.45V80.08c0-4.11,3.33-7.45,7.45-7.45c4.11,0,7.45,3.33,7.45,7.45
			v52.55C758.23,136.74,754.9,140.07,750.78,140.07z"></path></g><g><path class="st0" d="M824.63,138.2c-2.91,2.91-7.62,2.91-10.53,0l-35.16-35.16c-2.91-2.91-2.91-7.62,0-10.53
			c2.91-2.91,7.62-2.91,10.53,0l35.16,35.16C827.54,130.57,827.54,135.29,824.63,138.2z"></path></g></g><g><path class="fill-primary-500" d="M964.25,140.36c-4.14,0-7.49-3.35-7.49-7.49V62.76c0-4.14,3.35-7.49,7.49-7.49c4.14,0,7.49,3.35,7.49,7.49
		v70.12C971.74,137.01,968.38,140.36,964.25,140.36z"></path></g><circle class="fill-primary-500" cx="964.25" cy="38.62" r="7.49"></circle><circle class="st0" cx="900.02" cy="97.82" r="7.49"></circle><path class="fill-primary-500" d="M942.57,62.76c0-4.14-3.35-7.49-7.49-7.49c-4.14,0-7.49,3.35-7.49,7.49v2.69
	c-7.43-6.34-17.06-10.18-27.57-10.18c-23.46,0-42.55,19.09-42.55,42.55s19.09,42.55,42.55,42.55c10.51,0,20.14-3.84,27.57-10.18
	v2.69c0,4.14,3.35,7.49,7.49,7.49c4.14,0,7.49-3.35,7.49-7.49v-2.99c0,0,0,0,0,0V62.76z M900.02,125.39
	c-15.2,0-27.57-12.37-27.57-27.57s12.37-27.57,27.57-27.57s27.57,12.37,27.57,27.57S915.23,125.39,900.02,125.39z"></path></svg>